{"title":"It.Follows.2014.720p.BluRay.H264.AAC-RARBG","uid":11982496,"size":1302018762,"categoryP":"video","categoryS":"hd___movies","magnet":"?xt=urn:btih:d5ed3810fc899b9278ec20db7f6283694c2b4fe9&amp;dn=It.Follows.2014.720p.BluRay.H264.AAC-RARBG&amp;tr=udp%3A%2F%2Ftracker.openbittorrent.com%3A80&amp;tr=udp%3A%2F%2Fopen.demonii.com%3A1337&amp;tr=udp%3A%2F%2Ftracker.coppersurfer.tk%3A6969&amp;tr=udp%3A%2F%2Fexodus.desync.com%3A6969","seeders":0,"leechers":1,"uploader":"vickey1992","files":4,"time":1433254234,"description":"Video\nID                                       : 1\nFormat                                   : AVC\nFormat/Info                              : Advanced Video Codec\nFormat profile                           : &lt;a class=&quot;__cf_email__&quot; href=&quot;/cdn-cgi/l/email-protection&quot; data-cfemail=&quot;0c44656b644c4038223d&quot;&gt;[email&amp;#160;protected]&lt;/a&gt;&lt;script data-cfhash='f9e31' type=&quot;text/javascript&quot;&gt;\n/* &lt;![CDATA[ */!function(){try{var t=&quot;currentScript&quot;in document?document.currentScript:function(){for(var t=document.getElementsByTagName(&quot;script&quot;),e=t.length;e--;)if(t[e].getAttribute(&quot;data-cfhash&quot;))return t[e]}();if(t&amp;&amp;t.previousSibling){var e,r,n,i,c=t.previousSibling,a=c.getAttribute(&quot;data-cfemail&quot;);if(a){for(e=&quot;&quot;,r=parseInt(a.substr(0,2),16),n=2;a.length-n;n+=2)i=parseInt(a.substr(n,2),16)^r,e+=String.fromCharCode(i);e=document.createTextNode(e),c.parentNode.replaceChild(e,c)}t.parentNode.removeChild(t);}}catch(u){}}()/* ]]&gt; */&lt;/script&gt;\nFormat settings, CABAC                   : Yes\nFormat settings, ReFrames                : 4 frames\nCodec ID                                 : avc1\nCodec ID/Info                            : Advanced Video Coding\nDuration                                 : 1h 40mn\nBit rate                                 : 1 500 Kbps\nWidth                                    : 1 280 pixels\nHeight                                   : 536 pixels\nDisplay aspect ratio                     : 2.40:1\nFrame rate mode                          : Constant\nFrame rate                               : 23.976 fps\nColor space                              : YUV\nChroma subsampling                       : 4:2:0\nBit depth                                : 8 bits\nScan type                                : Progressive\nBits/(Pixel*Frame)                       : 0.091\nStream size                              : 1.05 GiB (87%)\nWriting library                          : x264 core 144 r2525M 40bb568\nEncoding settings                        : cabac=1 / ref=4 / deblock=1:-1:-1 / analyse=0x3:0x113 / me=umh / subme=9 / psy=1 / psy_rd=1.00:0.15 / mixed_ref=1 / me_range=24 / chroma_me=1 / trellis=2 / 8x8dct=1 / cqm=0 / deadzone=21,11 / fast_pskip=1 / chroma_qp_offset=-3 / threads=32 / lookahead_threads=4 / sliced_threads=0 / nr=0 / decimate=1 / interlaced=0 / bluray_compat=0 / constrained_intra=0 / bframes=3 / b_pyramid=2 / b_adapt=1 / b_bias=0 / direct=1 / weightb=1 / open_gop=0 / weightp=2 / keyint=250 / keyint_min=25 / scenecut=40 / intra_refresh=0 / rc_lookahead=50 / rc=2pass / mbtree=1 / bitrate=1500 / ratetol=1.0 / qcomp=0.60 / qpmin=0 / qpmax=69 / qpstep=4 / cplxblur=20.0 / qblur=0.5 / vbv_maxrate=31250 / vbv_bufsize=31250 / nal_hrd=none / filler=0 / ip_ratio=1.40 / aq=3:1.00\nEncoded date                             : UTC 1904-01-01 00:00:00\nTagged date                              : UTC 1904-01-01 00:00:00\n\nAudio\nID                                       : 2\nFormat                                   : AAC\nFormat/Info                              : Advanced Audio Codec\nFormat profile                           : LC\nCodec ID                                 : 40\nDuration                                 : 1h 40mn\nBit rate mode                            : Constant\nBit rate                                 : 224 Kbps\nChannel(s)                               : 2 channels\nChannel(s)_Original                      : 6 channels\nChannel positions                        : Front: L C R, Side: L R, LFE\nSampling rate                            : 48.0 KHz\nCompression mode                         : Lossy\nStream size                              : 161 MiB (13%)\nLanguage                                 : English\nEncoded date                             : UTC 1904-01-01 00:00:00\nTagged date                              : UTC 1904-01-01 00:00:00\n\nMenu #1\nID                                       : 3\nCodec ID                                 : text\nDuration                                 : 1h 40mn\nLanguage                                 : English\nEncoded date                             : UTC 1904-01-01 00:00:00\nTagged date                              : UTC 1904-01-01 00:00:00\nBit rate mode                            : CBR\n00:00:00.000                             : 00:00:00.000\n00:03:53.193                             : 00:03:53.150\n00:08:46.944                             : 00:08:46.901\n00:13:58.714                             : 00:13:58.671\n00:22:05.158                             : 00:22:05.115\n00:27:20.974                             : 00:27:20.931\n00:32:12.557                             : 00:32:12.514\n00:44:38.510                             : 00:44:38.467\n00:49:15.037                             : 00:49:14.994\n00:53:58.820                             : 00:53:58.777\n01:02:48.099                             : 01:02:48.056\n01:07:45.062                             : 01:07:45.019\n01:16:13.528                             : 01:16:13.485\n01:26:19.217                             : 01:26:19.174\n01:31:18.724                             : 01:31:18.681\n01:35:42.238                             : 01:35:42.195\n\nMenu #2\n00:00:00.043                             : 00:00:00.000\n00:03:53.193                             : 00:03:53.150\n00:08:46.944                             : 00:08:46.901\n00:13:58.714                             : 00:13:58.671\n00:22:05.158                             : 00:22:05.115\n00:27:20.974                             : 00:27:20.931\n00:32:12.557                             : 00:32:12.514\n00:44:38.510                             : 00:44:38.467\n00:49:15.037                             : 00:49:14.994\n00:53:58.820                             : 00:53:58.777\n01:02:48.099                             : 01:02:48.056\n01:07:45.062                             : 01:07:45.019\n01:16:13.528                             : 01:16:13.485\n01:26:19.217                             : 01:26:19.174\n01:31:18.724                             : 01:31:18.681\n01:35:42.238                             : 01:35:42.195","torrent":{"xt":"urn:btih:d5ed3810fc899b9278ec20db7f6283694c2b4fe9","amp;dn":"It.Follows.2014.720p.BluRay.H264.AAC-RARBG","amp;tr":["udp%3A%2F%2Ftracker.openbittorrent.com%3A80","udp%3A%2F%2Fopen.demonii.com%3A1337","udp%3A%2F%2Ftracker.coppersurfer.tk%3A6969","udp%3A%2F%2Fexodus.desync.com%3A6969"],"infoHash":"d5ed3810fc899b9278ec20db7f6283694c2b4fe9","infoHashBuffer":{"type":"Buffer","data":[213,237,56,16,252,137,155,146,120,236,32,219,127,98,131,105,76,43,79,233]},"announce":[],"urlList":[]}}